<?xml version="1.0" standalone="no"?>
<!DOCTYPE svg PUBLIC "-//W3C//DTD SVG 20010904//EN"
 "http://www.w3.org/TR/2001/REC-SVG-20010904/DTD/svg10.dtd">
<svg version="1.0" xmlns="http://www.w3.org/2000/svg"
 width="640.000000pt" height="640.000000pt" viewBox="0 0 640.000000 640.000000"
 preserveAspectRatio="xMidYMid meet">
<metadata>
Created by potrace 1.14, written by Peter Selinger 2001-2017
</metadata>
<g transform="translate(0.000000,640.000000) scale(0.100000,-0.100000)"
fill="#000000" stroke="none">
<path d="M3981 5808 c2 -37 -2 -72 -9 -85 -16 -29 -12 -143 5 -143 20 0 21 10
24 135 2 148 2 155 -12 155 -7 0 -10 -22 -8 -62z"/>
<path d="M3917 5549 c6 -31 5 -32 -25 -27 -44 6 -42 -17 3 -32 37 -12 55 -7
55 16 0 8 5 14 10 14 16 0 -7 38 -30 50 -18 10 -19 8 -13 -21z"/>
<path d="M3780 5541 c0 -10 50 -25 57 -17 3 2 2 9 -2 15 -8 13 -55 15 -55 2z"/>
<path d="M2666 5495 c-6 -37 -12 -46 -32 -51 -13 -3 -24 -11 -24 -16 0 -6 -7
-5 -15 2 -9 7 -18 10 -22 6 -3 -3 -12 3 -20 14 -21 29 -33 24 -33 -12 l-1 -33
-16 30 c-9 17 -18 25 -20 18 -3 -7 -11 -13 -19 -13 -8 0 -14 -8 -14 -17 0 -14
-2 -15 -9 -5 -7 11 -10 10 -15 -3 -3 -9 -6 -25 -6 -35 0 -10 -7 -20 -15 -24
-9 -3 -15 0 -15 10 0 8 -9 25 -21 37 l-21 22 8 -40 c4 -22 10 -42 14 -45 5 -3
10 -21 11 -40 4 -34 3 -35 -28 -33 -25 1 -33 -3 -36 -20 -3 -18 -5 -17 -6 6 0
15 4 27 11 27 8 0 5 7 -5 18 -17 16 -19 16 -31 0 -7 -10 -19 -18 -25 -18 -13
0 -41 -24 -41 -35 0 -4 7 -4 16 -1 13 5 15 1 12 -23 -2 -17 -1 -28 3 -25 4 2
11 -5 14 -17 4 -12 12 -18 21 -15 10 4 14 -2 14 -19 0 -13 4 -26 8 -29 5 -3 8
5 8 17 -1 33 30 33 48 0 14 -26 15 -26 16 -5 0 26 17 30 23 5 2 -10 3 -7 1 7
-7 47 -13 125 -8 100 3 -14 11 -45 19 -70 19 -63 35 -168 28 -187 -3 -8 0 -19
7 -23 7 -4 13 -32 15 -67 3 -90 25 -120 51 -70 8 15 20 27 26 27 12 0 -22 29
-34 30 -5 0 -9 -10 -9 -22 -1 -19 -2 -19 -6 -5 -3 10 2 26 10 35 8 9 18 46 21
82 9 86 11 93 19 108 5 6 12 31 16 54 9 43 9 43 10 8 1 -19 -4 -51 -9 -70 -6
-19 -13 -59 -16 -89 -2 -30 -7 -58 -10 -62 -2 -4 0 -10 5 -14 6 -3 13 11 16
32 15 93 19 98 57 63 19 -17 20 -24 11 -70 -8 -40 -8 -50 3 -50 8 0 14 -8 14
-18 0 -9 9 -23 20 -30 12 -7 18 -17 15 -22 -6 -10 15 -60 25 -60 13 0 40 49
40 72 0 13 -4 29 -9 37 -5 8 -6 24 -2 35 4 12 4 53 1 91 -6 59 -7 63 -8 23 -2
-52 -17 -64 -25 -21 -3 17 3 43 14 65 29 56 39 51 51 -27 6 -36 39 123 38 182
-1 32 3 87 8 122 10 66 7 95 -9 85 -6 -3 -17 0 -25 7 -12 10 -18 8 -32 -12 -9
-13 -17 -28 -18 -34 0 -5 -4 -19 -8 -30 -5 -11 -10 -26 -12 -33 -2 -7 -8 -10
-14 -7 -15 9 -12 -21 4 -34 15 -13 23 -211 8 -211 -5 0 -18 9 -31 21 -20 18
-21 27 -16 74 5 36 3 55 -5 60 -9 5 -10 1 -5 -14 4 -13 2 -21 -5 -21 -9 0 -10
11 -5 36 6 34 5 36 -14 31 -26 -6 -36 7 -18 25 8 7 20 37 27 66 10 42 15 50
25 42 10 -9 19 -4 36 19 12 17 31 33 41 37 17 5 17 7 5 17 -8 7 -20 29 -27 50
-16 51 -36 47 -44 -8z m-24 -87 c-7 -7 -12 -8 -12 -2 0 14 12 26 19 19 2 -3
-1 -11 -7 -17z m-132 -259 c0 -53 -5 -59 -26 -31 -12 15 -13 13 -14 -18 0 -19
-4 -41 -9 -48 -16 -26 -20 31 -7 88 13 52 14 53 24 30 l11 -25 2 25 c1 14 1
29 0 33 -1 5 3 6 9 2 5 -3 10 -28 10 -56z"/>
<path d="M2834 5515 c-3 -13 -2 -36 3 -50 5 -15 4 -60 -1 -106 -11 -87 -2
-132 27 -137 13 -3 17 4 17 27 0 17 -5 31 -11 31 -8 0 -9 18 -5 58 14 121 15
136 5 148 -5 7 -9 16 -8 20 7 38 -17 47 -27 9z"/>
<path d="M3615 5531 c-14 -6 -1 -10 45 -14 36 -3 80 -9 98 -13 17 -3 32 -2 32
3 0 5 -32 14 -70 21 -79 14 -78 13 -105 3z"/>
<path d="M3454 5516 c-10 -8 -23 -11 -29 -7 -5 4 -21 2 -35 -5 l-25 -14 25 0
c24 -1 24 -1 6 -15 -19 -14 -19 -15 6 -15 35 0 59 10 52 21 -3 5 2 9 11 9 9 0
13 -5 10 -10 -4 -6 -9 -22 -11 -36 -4 -24 -3 -25 11 -11 8 9 15 21 15 27 0 8
8 10 23 5 41 -13 95 -17 101 -7 3 6 -15 13 -45 17 -28 4 -46 11 -40 15 7 4 35
3 63 -1 78 -13 79 2 2 22 -85 22 -115 23 -140 5z"/>
<path d="M2930 5474 c-22 -52 -26 -104 -8 -122 6 -6 11 -25 10 -42 -1 -29 6
-34 38 -31 10 1 11 -1 4 -6 -7 -4 -14 -33 -17 -63 -2 -30 -2 -45 0 -32 2 12 9
22 14 22 12 0 12 -67 -1 -91 -8 -13 -7 -31 1 -59 12 -39 29 -54 29 -25 0 8 -4
15 -10 15 -5 0 0 10 11 21 17 17 23 18 29 8 7 -10 12 -10 22 -1 12 10 14 1 14
-58 -1 -46 3 -73 13 -82 10 -9 15 -10 18 -1 2 6 13 22 24 35 13 15 19 33 17
50 -3 16 -1 28 4 28 5 0 6 5 3 11 -4 6 -9 8 -12 5 -15 -15 -33 28 -33 80 0 55
1 57 19 40 13 -12 21 -14 26 -6 3 5 11 8 16 5 12 -8 69 49 69 69 0 8 5 18 10
21 6 3 10 22 10 41 0 37 -19 48 -21 12 -1 -21 -2 -21 -6 -3 -3 11 -10 26 -16
34 -10 11 -13 9 -18 -10 l-7 -24 -1 23 c-1 13 -7 22 -13 21 -28 -3 -36 2 -42
26 -8 30 -26 34 -26 6 0 -11 -4 -23 -10 -26 -5 -3 -10 1 -10 10 0 9 -29 46
-65 81 l-64 64 -21 -46z"/>
<path d="M3825 5500 c-3 -5 -1 -10 4 -10 6 0 11 5 11 10 0 6 -2 10 -4 10 -3 0
-8 -4 -11 -10z"/>
<path d="M3646 5453 c-10 -26 5 -31 119 -37 38 -1 45 18 9 22 -21 3 -24 6 -13
13 9 6 -1 7 -31 4 -33 -4 -40 -3 -25 4 17 8 14 10 -16 10 -26 1 -39 -4 -43
-16z"/>
<path d="M2046 5424 c-8 -21 1 -34 25 -34 20 0 23 8 13 34 -8 21 -30 21 -38 0z"/>
<path d="M3713 5387 c12 -10 15 -17 7 -22 -6 -4 -17 -2 -24 4 -15 12 -116 11
-116 -1 0 -4 9 -8 21 -8 11 0 17 -4 14 -10 -5 -8 39 -16 68 -11 4 0 7 -3 7 -9
0 -5 9 -10 19 -10 11 0 23 -4 26 -10 8 -13 88 -10 97 4 5 7 8 4 8 -6 0 -13 9
-18 33 -19 17 -1 25 -3 17 -5 -22 -6 -14 -71 11 -84 23 -13 26 -7 30 65 l4 60
-27 -3 c-22 -3 -27 0 -22 12 3 9 12 16 20 16 8 0 14 4 14 9 0 9 -39 23 -75 27
-146 16 -150 16 -132 1z"/>
<path d="M2320 5353 c0 -14 19 -38 25 -32 8 8 -5 39 -16 39 -5 0 -9 -3 -9 -7z"/>
<path d="M1914 5322 c-19 -10 -24 -17 -15 -20 7 -2 17 1 21 8 4 6 22 10 40 8
18 -2 35 2 37 8 5 16 -50 13 -83 -4z"/>
<path d="M3288 5308 c-7 -13 -13 -27 -13 -33 -2 -19 -24 -63 -34 -70 -14 -8
-14 -55 0 -55 6 0 13 9 16 20 5 20 6 20 25 3 19 -17 20 -17 37 5 13 18 19 20
29 10 9 -9 12 -7 12 13 0 14 5 30 11 36 18 18 2 30 -37 27 -36 -3 -36 -2 -31
32 7 40 3 43 -15 12z"/>
<path d="M1870 5281 c-8 -6 -28 -7 -45 -5 -22 4 -26 3 -15 -4 8 -6 17 -9 21
-6 4 2 9 -1 11 -8 3 -9 15 -6 39 10 19 12 27 22 19 22 -8 0 -22 -4 -30 -9z"/>
<path d="M3585 5280 c-3 -5 -1 -10 4 -10 6 0 11 5 11 10 0 6 -2 10 -4 10 -3 0
-8 -4 -11 -10z"/>
<path d="M1705 5249 c-33 -16 -62 -34 -64 -41 -2 -7 3 -9 13 -5 9 4 16 2 16
-3 0 -6 -9 -10 -19 -10 -11 0 -23 -4 -26 -10 -10 -17 38 -11 66 8 14 9 24 22
22 29 -5 13 33 27 57 21 9 -2 16 6 18 20 4 29 -9 27 -83 -9z"/>
<path d="M2650 5253 c0 -22 2 -25 10 -13 13 20 13 40 0 40 -5 0 -10 -12 -10
-27z"/>
<path d="M3765 5250 c6 -9 -2 -10 -33 -5 -24 4 -49 2 -59 -4 -15 -9 -11 -10
22 -11 26 0 35 -3 27 -9 -11 -7 -11 -9 2 -14 10 -4 13 -13 9 -23 -5 -14 -2
-16 20 -10 16 4 27 2 27 -4 0 -5 -4 -10 -10 -10 -23 0 -7 -21 20 -27 25 -4 28
-8 19 -20 -16 -18 3 -38 27 -29 13 5 15 14 10 46 -3 21 -2 41 3 44 15 9 9 56
-8 65 -9 5 -31 12 -50 16 -25 5 -32 4 -26 -5z m52 -26 c-3 -3 -12 -4 -19 -1
-8 3 -5 6 6 6 11 1 17 -2 13 -5z"/>
<path d="M2174 5219 c2 -18 8 -35 15 -37 17 -6 14 43 -4 58 -13 11 -15 8 -11
-21z"/>
<path d="M2200 5155 c0 -8 2 -15 4 -15 2 0 11 -3 20 -6 10 -4 16 -1 16 9 0 8
-7 18 -16 21 -22 9 -24 8 -24 -9z"/>
<path d="M2150 5115 c0 -5 5 -17 10 -25 5 -8 10 -10 10 -5 0 6 -5 17 -10 25
-5 8 -10 11 -10 5z"/>
<path d="M0 3974 l0 -1114 25 -6 c14 -3 39 -4 55 0 17 3 51 1 78 -4 26 -5 97
-9 157 -10 61 -1 207 -6 325 -12 118 -5 228 -7 245 -3 36 7 86 46 68 52 -7 3
-13 10 -13 15 0 6 3 8 7 5 14 -15 31 32 38 106 4 42 11 79 15 82 4 2 8 28 9
57 1 29 2 60 3 68 1 8 0 24 -1 35 -2 18 -3 18 -16 -5 l-14 -25 -1 28 c0 15 6
42 13 60 7 18 14 52 16 77 3 58 26 144 53 194 13 25 22 60 22 95 1 31 9 71 19
90 11 23 17 58 17 107 0 61 4 79 24 109 13 19 27 54 31 78 4 23 11 47 15 52 4
6 13 43 20 83 7 40 19 77 26 83 7 6 11 16 8 23 -3 7 6 38 19 68 28 64 42 114
38 144 -1 11 5 27 13 34 9 7 16 18 16 25 0 6 11 34 25 61 14 27 22 56 19 66
-2 9 0 19 6 23 6 4 7 12 1 22 -9 17 -4 50 10 69 5 6 6 39 3 73 -5 43 -3 61 5
61 6 0 11 9 11 21 0 11 -5 17 -10 14 -11 -7 -40 18 -40 34 0 6 -18 11 -40 11
-30 0 -40 -4 -40 -16 0 -17 -19 -14 -78 13 -23 11 -40 13 -55 7 -12 -5 -78 -9
-147 -8 -379 4 -449 6 -476 14 -16 4 -21 9 -11 9 24 1 21 20 -5 30 -13 4 -132
11 -265 14 l-243 6 0 -1115z m480 1071 c0 -8 -6 -15 -14 -15 -20 0 -29 17 -14
23 22 9 28 7 28 -8z"/>
<path d="M617 5063 c-12 -11 -8 -23 8 -23 8 0 15 7 15 15 0 16 -12 20 -23 8z"/>
<path d="M700 5050 c-13 -8 -12 -10 3 -10 9 0 17 5 17 10 0 12 -1 12 -20 0z"/>
<path d="M2791 4974 c0 -11 3 -14 6 -6 3 7 2 16 -1 19 -3 4 -6 -2 -5 -13z"/>
<path d="M3102 4893 c-7 -16 -8 -31 -3 -36 12 -12 30 23 22 45 -5 14 -8 13
-19 -9z"/>
<path d="M4087 4845 c-25 -24 3 -175 32 -175 9 0 21 -43 27 -92 2 -16 -3 -53
-11 -85 -10 -39 -12 -60 -4 -69 7 -8 7 -14 -1 -19 -12 -7 -3 -113 12 -132 5
-7 5 -14 -2 -18 -5 -3 -10 -14 -10 -24 0 -10 -6 -24 -14 -31 -19 -15 -9 -40
15 -40 10 0 19 -6 19 -14 0 -18 50 -8 57 12 4 8 0 24 -6 35 -11 17 -10 22 3
29 8 5 13 15 10 22 -3 7 5 31 17 52 20 36 21 48 15 138 -5 82 -10 102 -25 113
-27 18 -35 65 -20 108 11 30 10 43 -6 93 -19 55 -61 112 -83 112 -6 0 -17 -7
-25 -15z"/>
<path d="M2232 4773 c-9 -3 -3 -12 18 -24 39 -24 63 -14 29 12 -26 20 -27 20
-47 12z"/>
<path d="M3298 4773 c7 -3 16 -2 19 1 4 3 -2 6 -13 5 -11 0 -14 -3 -6 -6z"/>
<path d="M3286 4696 c-15 -9 -34 -16 -40 -16 -7 0 -21 -8 -32 -17 -11 -10 -37
-27 -58 -38 -42 -21 -86 -72 -86 -99 0 -9 -6 -30 -14 -45 -8 -15 -17 -58 -19
-95 -4 -65 -4 -68 21 -77 29 -11 57 -4 47 11 -9 14 22 12 80 -6 56 -17 150
-20 168 -6 7 5 27 13 45 17 17 3 32 10 32 15 0 5 9 12 20 15 20 6 54 61 75
120 10 28 12 29 85 32 76 2 110 -11 110 -44 0 -8 11 -13 29 -13 16 0 36 -7 43
-15 24 -26 34 -40 45 -59 12 -23 93 -50 107 -36 5 5 4 22 -3 41 -6 17 -11 47
-11 65 0 23 -7 38 -22 48 -14 10 -17 16 -8 16 8 0 0 14 -20 34 -19 19 -39 32
-43 29 -5 -3 -23 2 -40 10 -18 9 -49 19 -70 22 -21 3 -41 13 -44 21 -3 8 -19
14 -38 14 -19 0 -37 5 -40 10 -3 6 -25 10 -47 10 -23 0 -61 9 -85 21 -58 28
-149 35 -187 15z"/>
<path d="M2208 4667 c-27 -5 -48 -13 -48 -18 0 -5 -10 -9 -22 -9 -13 0 -43 -7
-67 -15 -24 -9 -52 -13 -62 -10 -14 5 -24 -2 -37 -24 -13 -24 -24 -31 -49 -31
-18 0 -42 -4 -55 -9 -13 -5 -41 -14 -62 -21 -50 -16 -130 -76 -114 -86 8 -5 6
-11 -7 -20 -12 -9 -16 -20 -11 -39 4 -14 2 -34 -3 -44 -7 -12 -6 -22 1 -29 17
-17 58 -15 58 2 0 8 7 16 15 20 8 3 15 12 15 21 0 10 14 17 41 21 23 4 36 10
29 14 -7 5 -3 9 11 13 19 5 21 9 11 19 -16 16 -15 28 3 28 7 0 19 -8 24 -17 7
-12 13 -14 18 -7 5 6 29 14 55 18 26 4 55 14 63 23 9 8 17 14 18 12 2 -2 14
-28 27 -57 22 -48 86 -118 130 -142 35 -19 171 -13 215 8 47 23 73 28 98 17
40 -17 57 46 32 118 -8 23 -15 51 -15 62 0 19 -112 135 -131 135 -5 0 -31 10
-57 23 -70 34 -72 34 -124 24z"/>
<path d="M3680 4440 c0 -5 7 -10 15 -10 8 0 15 5 15 10 0 6 -7 10 -15 10 -8 0
-15 -4 -15 -10z"/>
<path d="M3726 4421 c-3 -5 5 -11 18 -13 17 -4 23 -1 19 9 -6 15 -29 18 -37 4z"/>
<path d="M3680 4395 c0 -10 -10 -15 -29 -15 -16 0 -37 -3 -47 -7 -16 -6 -16
-7 2 -14 16 -6 15 -8 -11 -14 -34 -7 -102 -41 -127 -62 -11 -10 -27 -13 -50
-8 -28 6 -31 5 -20 -6 7 -8 41 -16 75 -19 46 -4 62 -9 62 -20 0 -9 -11 -16
-25 -18 -39 -4 -70 -24 -70 -44 0 -10 5 -18 10 -18 6 0 10 -9 10 -20 0 -11 5
-20 10 -20 6 0 10 10 10 21 0 18 4 20 23 14 35 -11 121 -23 130 -18 5 3 6 11
3 19 -3 9 1 14 13 14 25 0 22 33 -4 40 -11 3 -21 16 -23 28 -2 12 -9 23 -15
24 -7 0 8 4 33 7 42 6 45 8 43 34 -2 27 10 36 22 17 3 -5 13 -10 21 -10 22 0
16 92 -6 102 -25 11 -40 9 -40 -7z m-100 -235 c11 -7 6 -10 -20 -10 -26 0 -31
3 -20 10 8 5 17 10 20 10 3 0 12 -5 20 -10z"/>
<path d="M1887 4353 c-4 -3 -7 -15 -7 -25 0 -10 -9 -27 -20 -38 -40 -40 -14
-159 32 -144 10 3 18 1 18 -5 0 -6 -4 -11 -10 -11 -17 0 -11 -19 10 -30 14 -7
32 -8 55 -1 28 7 35 7 35 -5 0 -8 -6 -14 -14 -14 -14 0 -31 -29 -22 -38 3 -2
19 -6 37 -8 24 -3 41 4 73 31 24 19 53 35 65 35 20 0 25 9 22 38 -1 6 3 12 10
12 6 0 9 6 6 14 -3 8 0 20 8 26 11 9 10 15 -6 31 -39 39 -104 61 -201 68 -4 1
-10 10 -13 21 -3 11 -13 20 -21 20 -8 0 -17 7 -20 15 -6 16 -26 20 -37 8z m78
-203 c-3 -5 -13 -10 -21 -10 -8 0 -12 5 -9 10 3 6 13 10 21 10 8 0 12 -4 9
-10z"/>
<path d="M3680 4190 c0 -5 7 -10 15 -10 8 0 15 5 15 10 0 6 -7 10 -15 10 -8 0
-15 -4 -15 -10z"/>
<path d="M4120 4104 c0 -9 -9 -18 -20 -21 -21 -6 -27 -37 -10 -48 6 -4 8 -11
5 -16 -4 -5 1 -12 9 -15 21 -8 20 -24 0 -24 -14 0 -14 -3 -4 -15 10 -12 10
-15 -1 -16 -8 0 -5 -4 6 -9 20 -9 20 -9 0 -9 -17 -1 -21 -8 -22 -38 0 -21 -2
-44 -4 -52 -2 -9 6 -17 21 -21 15 -3 26 -14 28 -27 2 -12 11 -24 20 -26 9 -3
0 -5 -20 -6 -21 0 -38 -5 -38 -11 0 -5 4 -10 9 -10 5 0 9 -26 10 -58 0 -41 8
-71 24 -102 23 -44 25 -45 68 -42 28 1 39 -1 30 -7 -17 -11 1 -22 19 -11 13 8
35 7 96 -5 20 -4 20 -2 12 63 -5 37 -6 79 -4 94 3 15 1 30 -5 33 -5 4 3 21 21
41 16 19 30 45 30 57 0 13 4 27 9 33 5 5 11 31 12 58 3 41 0 50 -16 56 -13 4
-15 9 -7 14 22 13 12 25 -30 37 -24 7 -51 19 -60 27 -10 8 -24 12 -33 8 -22
-8 -65 22 -65 45 0 22 -28 39 -64 39 -17 0 -26 -5 -26 -16z m88 -141 c-10 -2
-26 -2 -35 0 -10 3 -2 5 17 5 19 0 27 -2 18 -5z m65 -230 c-7 -2 -19 -2 -25 0
-7 3 -2 5 12 5 14 0 19 -2 13 -5z"/>
<path d="M3527 4103 c-14 -13 -6 -24 15 -21 27 4 36 28 11 28 -11 0 -23 -3
-26 -7z"/>
<path d="M2800 4045 c-14 -8 -44 -14 -66 -15 -24 0 -47 -6 -54 -15 -7 -8 -20
-15 -30 -15 -34 0 -27 -13 46 -84 59 -58 74 -78 74 -102 0 -29 -38 -98 -68
-121 -14 -12 -14 -13 1 -13 9 0 17 5 17 11 0 6 5 7 13 2 22 -14 151 -28 207
-22 54 6 56 12 4 18 -18 2 -64 49 -64 66 0 9 -7 18 -15 21 -8 4 -15 14 -15 24
0 10 7 25 15 34 8 8 15 17 15 20 0 8 61 66 71 66 5 0 9 4 9 9 0 5 14 22 30 38
37 34 38 47 4 39 -14 -4 -23 -3 -20 2 7 12 -30 30 -74 35 -19 3 -44 8 -55 11
-11 3 -31 -1 -45 -9z"/>
<path d="M5055 3467 c-120 -7 -131 -9 -152 -32 -13 -13 -23 -29 -23 -35 0 -5
-20 -10 -44 -10 -50 0 -72 -18 -53 -43 10 -13 44 -17 197 -23 102 -4 266 -7
365 -8 99 -1 243 -5 320 -10 247 -14 346 -18 543 -20 l192 -2 0 98 0 99 -607
-3 c-335 -2 -666 -6 -738 -11z"/>
<path d="M3304 3368 c4 -13 9 -35 12 -50 4 -16 10 -28 14 -28 10 0 0 -51 -13
-67 -6 -9 -4 -20 6 -36 8 -13 18 -55 21 -93 18 -226 26 -297 39 -369 8 -44 13
-83 10 -87 -2 -4 3 -19 12 -32 15 -23 15 -29 0 -82 -18 -62 -15 -209 6 -271 9
-29 15 -33 44 -33 19 0 37 5 40 10 3 6 17 10 30 10 16 0 25 7 29 25 4 15 14
25 24 25 27 0 45 73 36 149 -6 58 -16 76 -27 49 -6 -14 -11 92 -8 162 2 33 -3
51 -18 69 -12 13 -21 37 -21 52 0 15 -4 31 -10 34 -5 3 -10 17 -10 30 0 13 -7
31 -16 40 -12 12 -18 41 -21 108 -5 113 -31 176 -46 116 -3 -12 -12 -19 -19
-17 -17 6 -27 66 -15 98 6 18 4 27 -7 36 -9 6 -16 16 -16 22 0 10 -11 36 -53
130 -6 12 -15 22 -20 22 -5 0 -6 -10 -3 -22z"/>
<path d="M3281 3314 c0 -11 3 -14 6 -6 3 7 2 16 -1 19 -3 4 -6 -2 -5 -13z"/>
<path d="M1354 2379 c-10 -17 6 -82 24 -96 11 -8 31 -11 55 -8 33 5 39 2 46
-18 12 -31 28 -37 80 -30 30 4 41 10 37 19 -3 7 5 20 17 29 33 23 6 36 -67 33
l-59 -3 -5 35 c-2 19 -9 38 -15 42 -16 10 -106 7 -113 -3z"/>
<path d="M2253 1813 c-7 -2 -13 -13 -13 -23 0 -13 -10 -20 -40 -25 -30 -5 -40
-11 -40 -25 0 -11 -6 -23 -13 -27 -18 -11 -47 -59 -47 -78 0 -11 -6 -15 -18
-11 -10 4 -27 -1 -38 -9 -10 -8 -33 -15 -51 -15 -24 0 -31 -4 -27 -14 3 -8 1
-17 -5 -21 -21 -12 -11 -24 32 -37 23 -7 60 -25 82 -41 23 -16 49 -27 60 -24
12 2 27 -2 33 -10 7 -7 29 -13 48 -13 20 0 42 -7 50 -15 27 -26 64 -19 76 15
5 17 15 29 21 27 20 -6 67 75 67 115 0 30 4 37 23 40 19 3 22 10 25 50 l3 47
-37 7 c-24 4 -39 3 -42 -4 -3 -10 -65 -7 -84 4 -11 7 -32 53 -32 73 -1 16 -15
22 -33 14z"/>
<path d="M5002 1776 l-24 -13 34 -16 c29 -14 35 -14 48 -1 13 14 13 17 -4 30
-24 17 -25 17 -54 0z"/>
<path d="M4768 1773 c-9 -2 -20 -12 -23 -21 -2 -9 -17 -25 -32 -34 -52 -32
-68 -43 -73 -48 -3 -3 -16 -11 -29 -18 -19 -11 -25 -11 -32 -1 -4 7 -5 17 -3
21 3 4 1 8 -4 8 -5 0 -12 9 -15 20 -6 24 -34 26 -65 4 -29 -20 -122 -28 -122
-10 0 27 -41 33 -114 16 -53 -13 -72 -22 -75 -35 -5 -27 -24 -43 -57 -47 -27
-3 -29 -5 -26 -45 1 -23 -2 -44 -8 -48 -5 -3 -10 -14 -10 -23 0 -9 -9 -28 -20
-42 -11 -14 -20 -32 -20 -41 0 -9 -9 -24 -19 -33 -11 -10 -19 -26 -18 -35 2
-34 -25 -81 -46 -81 -11 0 -28 -7 -38 -16 -27 -24 -141 -31 -173 -10 -14 9
-34 16 -46 16 -17 0 -20 6 -20 45 0 40 2 44 21 42 12 -1 26 6 33 18 6 11 18
27 27 35 23 21 34 110 14 110 -8 0 -15 5 -15 10 0 6 -21 10 -48 10 -38 0 -51
-5 -65 -24 -21 -28 -73 -38 -134 -27 -34 7 -45 5 -58 -9 -17 -19 -21 -120 -5
-120 6 0 10 -6 10 -13 0 -7 11 -23 25 -35 14 -12 25 -30 26 -39 0 -11 3 -13 6
-5 9 22 43 -60 43 -105 0 -34 4 -43 18 -43 16 0 42 -45 57 -97 3 -11 12 -24
20 -27 8 -3 15 -16 15 -30 0 -14 14 -39 33 -59 24 -25 31 -42 29 -63 -3 -18 2
-32 13 -40 9 -7 18 -24 19 -38 0 -15 8 -29 19 -32 13 -4 17 -16 17 -50 0 -30
5 -46 15 -50 17 -7 45 -59 45 -86 0 -10 -7 -18 -16 -18 -8 0 -13 -4 -10 -9 3
-4 -13 -5 -36 -1 -45 9 -109 2 -118 -11 -3 -5 -48 -9 -99 -10 -87 -2 -94 -4
-104 -26 -5 -13 -16 -23 -24 -23 -9 0 -13 -16 -13 -58 0 -32 -5 -63 -11 -69
-11 -11 -15 -80 -9 -157 3 -32 -1 -43 -18 -54 -25 -17 -28 -44 -8 -65 8 -8 42
-17 75 -21 33 -4 63 -11 66 -16 4 -6 306 -10 797 -10 l791 0 -7 40 c-4 23 -2
40 3 40 5 0 12 9 16 19 5 16 12 19 40 14 35 -6 125 27 125 46 0 11 -123 43
-151 39 -18 -2 -25 -10 -27 -32 -4 -36 -25 -58 -46 -50 -16 6 -21 -10 -16 -45
1 -9 -5 -12 -20 -8 -12 3 -30 1 -40 -5 -25 -16 -79 8 -92 41 -18 45 -13 188 9
228 17 33 17 35 0 48 -10 7 -17 17 -16 21 3 19 -2 34 -11 34 -5 0 -10 -9 -10
-19 0 -31 -30 -34 -56 -6 -13 14 -24 30 -24 35 0 5 24 21 53 35 28 14 59 29
67 34 8 5 27 14 43 20 17 7 27 18 27 31 0 12 10 25 23 31 44 20 95 135 103
233 3 27 11 54 18 60 8 6 16 32 19 58 2 27 11 55 18 65 9 10 13 34 11 65 -3
30 0 48 7 48 7 0 11 -22 11 -55 0 -52 1 -55 19 -45 14 7 21 25 26 67 6 45 14
65 37 89 27 29 30 40 44 170 12 106 19 142 32 152 10 8 18 29 19 54 1 23 10
53 22 69 12 16 21 35 21 43 0 16 -34 31 -50 21 -5 -3 -10 -1 -10 5 0 6 -5 8
-10 5 -6 -4 -51 -8 -100 -9 -71 -1 -93 -6 -109 -20 -43 -39 -13 -116 44 -116
28 0 36 -6 50 -32 15 -31 15 -34 -2 -46 -10 -8 -25 -19 -33 -25 -8 -7 -26 -29
-40 -50 -21 -31 -29 -37 -50 -32 -14 3 -43 8 -65 11 -80 11 -85 13 -85 39 0
18 -5 25 -19 25 -12 0 -20 9 -24 28 -3 15 -22 45 -42 67 -52 56 -55 64 -46
131 5 32 6 66 3 74 -6 15 -33 40 -42 39 -3 -1 -13 -3 -22 -6z m-945 -550 c-13
-2 -33 -2 -45 0 -13 2 -3 4 22 4 25 0 35 -2 23 -4z m-113 -254 c0 -5 -7 -9
-15 -9 -8 0 -15 7 -15 15 0 9 6 12 15 9 8 -4 15 -10 15 -15z m344 -504 c6 -9
33 -17 64 -19 59 -5 72 -11 72 -32 0 -8 6 -14 14 -14 23 0 27 -29 6 -50 -11
-11 -26 -17 -35 -14 -10 4 -15 0 -15 -12 0 -16 -2 -15 -20 4 -25 26 -33 27
-54 6 -12 -11 -16 -12 -16 -2 0 7 -16 31 -35 52 -19 21 -32 42 -30 46 3 4 -2
13 -11 20 -12 11 -12 15 -2 21 21 13 50 10 62 -6z"/>
<path d="M3793 1692 c-41 -22 -41 -34 0 -55 17 -9 40 -22 49 -29 15 -11 21 -9
37 7 19 19 19 22 3 55 -20 41 -43 46 -89 22z"/>
<path d="M1325 1572 l-30 -4 40 -14 c46 -16 55 -17 55 -6 0 14 -35 27 -65 24z"/>
<path d="M2685 1171 c-7 -12 12 -24 24 -17 5 4 11 0 14 -6 2 -7 8 -10 12 -5 5
4 0 14 -11 22 -23 17 -31 18 -39 6z"/>
<path d="M1940 1130 c0 -5 5 -10 10 -10 6 0 10 5 10 10 0 6 -4 10 -10 10 -5 0
-10 -4 -10 -10z"/>
<path d="M2685 1130 c-9 -15 -1 -23 21 -18 15 3 16 4 1 16 -11 9 -17 10 -22 2z"/>
<path d="M2780 1130 c0 -5 -8 -10 -18 -10 -13 0 -18 -7 -18 -21 1 -12 -6 -25
-14 -29 -8 -4 -25 -12 -37 -18 -13 -7 -31 -12 -42 -12 -15 0 -20 -9 -23 -45
-3 -43 4 -59 16 -32 3 8 8 7 16 -5 6 -10 23 -18 38 -18 53 0 102 -13 102 -26
0 -7 16 -16 35 -20 57 -10 76 14 69 85 -8 74 -12 90 -23 72 -7 -11 -13 -9 -30
8 -11 11 -27 21 -35 21 -17 0 -28 24 -20 45 4 8 1 15 -5 15 -6 0 -11 -4 -11
-10z"/>
<path d="M5955 1040 c3 -5 8 -10 11 -10 2 0 4 5 4 10 0 6 -5 10 -11 10 -5 0
-7 -4 -4 -10z"/>
<path d="M2407 1033 c-4 -3 -7 -19 -7 -35 0 -15 -4 -28 -10 -28 -5 0 -10 -9
-10 -20 0 -13 -7 -20 -20 -20 -10 0 -27 -12 -37 -26 -10 -14 -28 -38 -41 -54
-14 -18 -20 -35 -15 -42 4 -7 8 -20 8 -28 0 -23 51 -25 69 -3 9 10 25 28 36
41 11 12 20 24 20 26 0 10 56 66 66 66 6 0 19 9 29 20 10 11 24 20 32 20 25 0
13 38 -21 64 -32 24 -84 34 -99 19z"/>
<path d="M5950 889 c0 -5 5 -7 10 -4 6 3 10 8 10 11 0 2 -4 4 -10 4 -5 0 -10
-5 -10 -11z"/>
<path d="M6010 821 c0 -12 5 -21 10 -21 6 0 10 6 10 14 0 8 -4 18 -10 21 -5 3
-10 -3 -10 -14z"/>
<path d="M5568 818 c9 -9 15 -9 24 0 9 9 7 12 -12 12 -19 0 -21 -3 -12 -12z"/>
<path d="M6055 802 c-3 -3 -5 -11 -5 -19 0 -18 41 -16 69 3 17 12 38 15 82 12
33 -2 54 -1 47 4 -14 9 -184 9 -193 0z"/>
<path d="M5495 780 c-3 -5 -1 -10 4 -10 6 0 11 5 11 10 0 6 -2 10 -4 10 -3 0
-8 -4 -11 -10z"/>
<path d="M5650 780 c0 -5 5 -10 11 -10 5 0 7 5 4 10 -3 6 -8 10 -11 10 -2 0
-4 -4 -4 -10z"/>
<path d="M5742 738 c3 -7 13 -15 22 -16 12 -3 17 1 14 10 -3 7 -13 15 -22 16
-12 3 -17 -1 -14 -10z"/>
<path d="M2145 703 c-16 -3 -34 -9 -39 -14 -6 -5 -25 -9 -44 -9 -18 0 -43 -5
-54 -11 -11 -6 -42 -11 -69 -11 -27 1 -51 -3 -54 -7 -8 -14 32 -43 52 -37 10
3 34 1 53 -5 19 -5 46 -12 60 -15 13 -3 29 -9 35 -13 19 -16 83 -22 125 -12
55 12 68 6 72 -32 3 -30 6 -32 57 -40 41 -7 56 -6 62 5 12 18 11 41 -1 33 -5
-3 -15 -3 -21 1 -8 5 -7 9 1 14 20 12 -31 57 -74 66 -32 5 -36 9 -30 28 18 54
13 61 -46 62 -30 1 -68 -1 -85 -3z"/>
<path d="M2477 693 c-12 -11 -8 -23 8 -23 8 0 15 7 15 15 0 16 -12 20 -23 8z"/>
<path d="M5517 684 c-14 -14 -7 -25 13 -22 12 2 21 8 21 13 0 12 -24 18 -34 9z"/>
<path d="M2828 623 c7 -3 16 -2 19 1 4 3 -2 6 -13 5 -11 0 -14 -3 -6 -6z"/>
<path d="M5230 620 c0 -5 5 -10 10 -10 6 0 10 5 10 10 0 6 -4 10 -10 10 -5 0
-10 -4 -10 -10z"/>
<path d="M5542 608 c7 -21 36 -34 49 -21 6 6 8 16 5 22 -10 15 -59 14 -54 -1z"/>
<path d="M5727 583 c-12 -11 -8 -23 8 -23 8 0 15 7 15 15 0 16 -12 20 -23 8z"/>
<path d="M2435 530 c-3 -5 3 -10 14 -10 12 0 21 5 21 10 0 6 -6 10 -14 10 -8
0 -18 -4 -21 -10z"/>
<path d="M5225 521 c-7 -13 17 -24 40 -19 9 1 16 8 16 13 0 14 -48 19 -56 6z"/>
<path d="M2779 490 c-24 -20 -24 -20 -4 -36 15 -12 34 -15 76 -11 43 4 61 1
72 -10 8 -9 33 -16 54 -17 59 -2 48 24 -27 61 -78 38 -136 43 -171 13z"/>
<path d="M5195 385 l-40 -12 40 -12 c22 -6 48 -11 57 -11 26 0 32 20 12 35
-22 17 -17 17 -69 0z"/>
<path d="M2898 365 c-2 -3 2 -27 11 -55 13 -43 19 -50 41 -50 45 0 55 13 40
52 -7 18 -20 39 -28 46 -16 12 -54 17 -64 7z"/>
<path d="M5988 363 c7 -3 16 -2 19 1 4 3 -2 6 -13 5 -11 0 -14 -3 -6 -6z"/>
<path d="M5898 343 c12 -2 32 -2 45 0 12 2 2 4 -23 4 -25 0 -35 -2 -22 -4z"/>
<path d="M6065 340 c4 -6 11 -8 16 -5 14 9 11 15 -7 15 -8 0 -12 -5 -9 -10z"/>
<path d="M6110 339 c0 -5 5 -7 10 -4 6 3 10 8 10 11 0 2 -4 4 -10 4 -5 0 -10
-5 -10 -11z"/>
<path d="M6150 333 c0 -10 4 -14 8 -8 4 6 11 13 16 18 5 4 2 7 -7 7 -10 0 -17
-8 -17 -17z"/>
<path d="M5980 321 c0 -15 -8 -21 -32 -24 -32 -4 -32 -4 5 -5 33 -2 37 0 37
23 0 14 -2 25 -5 25 -3 0 -5 -9 -5 -19z"/>
<path d="M5824 313 c10 -11 37 -12 30 -2 -3 5 -12 9 -21 9 -9 0 -13 -3 -9 -7z"/>
<path d="M6130 289 c0 -5 5 -7 10 -4 6 3 10 8 10 11 0 2 -4 4 -10 4 -5 0 -10
-5 -10 -11z"/>
<path d="M6173 250 c0 -25 2 -35 4 -22 2 12 2 32 0 45 -2 12 -4 2 -4 -23z"/>
<path d="M5988 273 c7 -3 16 -2 19 1 4 3 -2 6 -13 5 -11 0 -14 -3 -6 -6z"/>
<path d="M6037 273 c-4 -3 -7 -11 -7 -17 0 -6 5 -5 12 2 6 6 9 14 7 17 -3 3
-9 2 -12 -2z"/>
<path d="M5067 251 c-4 -16 0 -19 24 -19 17 1 32 5 35 10 8 12 4 15 -27 23
-21 5 -27 2 -32 -14z"/>
<path d="M6130 259 c0 -5 5 -7 10 -4 6 3 10 8 10 11 0 2 -4 4 -10 4 -5 0 -10
-5 -10 -11z"/>
<path d="M5550 250 c0 -5 5 -10 10 -10 6 0 10 5 10 10 0 6 -4 10 -10 10 -5 0
-10 -4 -10 -10z"/>
<path d="M5598 238 c12 -6 22 -15 22 -20 0 -4 6 -8 13 -8 6 1 1 10 -12 20 -13
11 -28 20 -35 19 -6 0 -1 -5 12 -11z"/>
<path d="M5886 235 c-9 -26 -7 -32 5 -12 6 10 9 21 6 23 -2 3 -7 -2 -11 -11z"/>
<path d="M6047 230 c-18 -18 -18 -18 0 -16 10 2 19 10 21 19 4 21 2 21 -21 -3z"/>
<path d="M5910 220 c-13 -8 -12 -10 3 -10 9 0 17 5 17 10 0 12 -1 12 -20 0z"/>
<path d="M6095 220 c-4 -7 3 -8 22 -4 38 9 42 14 10 14 -14 0 -29 -5 -32 -10z"/>
<path d="M5308 3 c6 -2 18 -2 25 0 6 3 1 5 -13 5 -14 0 -19 -2 -12 -5z"/>
</g>
</svg>
